# xmcd
#
# Track frame offsets:
#	150
#	14171
#	30220
#	47934
#	64355
#	80337
#	95796
#	110263
#	124333
#	142242
#	159563
#	178031
#	195987
#	208549
#
# Disc length: 3017 seconds
#
# Revision: 1
# Processed by: cddbd v1.5.2PL0 Copyright (c) Steve Scherf et al.
# Submitted via: audiograbber 1.83.01
#
DISCID=c90bc70e
DTITLE=Wills, Mark - Familiar stranger
DYEAR=2008
DGENRE=Country
TTITLE0=Days of thunder
TTITLE1=The things we forget
TTITLE2=Entertaining angels
TTITLE3=Closer
TTITLE4=Panama City
TTITLE5=Take it all out on me
TTITLE6=Rednecks anonymous
TTITLE7=The likes of you
TTITLE8=Crazy white boy
TTITLE9=Her kiss
TTITLE10=All the crap I do
TTITLE11=Hank
TTITLE12=How beautiful
TTITLE13=Second 16
EXTD=
EXTT0=
EXTT1=
EXTT2=
EXTT3=
EXTT4=
EXTT5=
EXTT6=
EXTT7=
EXTT8=
EXTT9=
EXTT10=
EXTT11=
EXTT12=
EXTT13=
PLAYORDER=
